# xmcd
#
# Track frame offsets: 
#        150
#        12236
#        23793
#        35058
#        45347
#        56306
#        66666
#        77999
#        87230
#        100585
#        111768
#        123701
#
# Disc length: 1829 seconds
#
# Revision: 0
# Processed by: cddbd v1.5.2PL0 Copyright (c) Steve Scherf et al.
# Submitted via: ExactAudioCopy v1.3
#
DISCID=9907230c
DTITLE=Loretta Lynn - Loretta Lynn Sings
DYEAR=1963
DGENRE=Country
TTITLE0=Success
TTITLE1=The Minute You're Gone
TTITLE2=The Other Woman
TTITLE3=Alone With You
TTITLE4=Why I'm Walking
TTITLE5=The Girl That I Am Now
TTITLE6=Act Naturally
TTITLE7=The World Of Forgotten People
TTITLE8=The Color Of The Blues
TTITLE9=Hundred Proof Heartache
TTITLE10=I Walked Away From The Wreck
TTITLE11=Lonesome 7-7203
EXTD=
EXTT0=
EXTT1=
EXTT2=
EXTT3=
EXTT4=
EXTT5=
EXTT6=
EXTT7=
EXTT8=
EXTT9=
EXTT10=
EXTT11=
PLAYORDER=
